<svg width="32" height="32" viewBox="0 0 32 32" fill="none" xmlns="http://www.w3.org/2000/svg">
<rect width="32" height="32" rx="16" fill="#00FFFF"/>
<g filter="url(#filter0_d)">
<path d="M19 8H13C10.239 8 8 10.239 8 13V19C8 21.761 10.239 24 13 24H19C21.761 24 24 21.761 24 19V13C24 10.239 21.761 8 19 8ZM22.5 19C22.5 20.93 20.93 22.5 19 22.5H13C11.07 22.5 9.5 20.93 9.5 19V13C9.5 11.07 11.07 9.5 13 9.5H19C20.93 9.5 22.5 11.07 22.5 13V19Z" fill="#00006F"/>
</g>
<path d="M16.0001 12C13.7911 12 12.0001 13.791 12.0001 16C12.0001 18.209 13.7911 20 16.0001 20C18.2091 20 20.0001 18.209 20.0001 16C20.0001 13.791 18.2091 12 16.0001 12ZM16.0001 18.5C14.6221 18.5 13.5001 17.378 13.5001 16C13.5001 14.621 14.6221 13.5 16.0001 13.5C17.3781 13.5 18.5001 14.621 18.5001 16C18.5001 17.378 17.3781 18.5 16.0001 18.5Z" fill="#00006F"/>
<path d="M20.3 12.233C20.5943 12.233 20.833 11.9944 20.833 11.7C20.833 11.4056 20.5943 11.167 20.3 11.167C20.0056 11.167 19.767 11.4056 19.767 11.7C19.767 11.9944 20.0056 12.233 20.3 12.233Z" fill="#00006F"/>
<defs>
<filter id="filter0_d" x="4" y="8" width="24" height="24" filterUnits="userSpaceOnUse" color-interpolation-filters="sRGB">
<feFlood flood-opacity="0" result="BackgroundImageFix"/>
<feColorMatrix in="SourceAlpha" type="matrix" values="0 0 0 0 0 0 0 0 0 0 0 0 0 0 0 0 0 0 127 0" result="hardAlpha"/>
<feOffset dy="4"/>
<feGaussianBlur stdDeviation="2"/>
<feColorMatrix type="matrix" values="0 0 0 0 0 0 0 0 0 0 0 0 0 0 0 0 0 0 0.25 0"/>
<feBlend mode="normal" in2="BackgroundImageFix" result="effect1_dropShadow"/>
<feBlend mode="normal" in="SourceGraphic" in2="effect1_dropShadow" result="shape"/>
</filter>
</defs>
</svg>
